<?xml version="1.0" encoding="utf-8"?>
<svg xmlns="http://www.w3.org/2000/svg" style="margin: auto; background: none; display: block; shape-rendering: auto; animation-play-state: running; animation-delay: 0s;" width="1037" height="250" preserveAspectRatio="xMidYMid">
<style type="text/css" style="animation-play-state: running; animation-delay: 0s;">
  text {
    text-anchor: middle; font-size: 81px; opacity: 0;
  }
</style>
<g style="transform-origin: 518.5px 125px; transform: scale(0.778846); animation-play-state: running; animation-delay: 0s;">
<g transform="translate(518.5,125)" style="animation-play-state: running; animation-delay: 0s;">
  <g transform="translate(0,18)" style="animation-play-state: running; animation-delay: 0s;"><g class="path" style="transform: matrix(1, 0, 0, 1, 0, 0); transform-origin: -551.915001px -5.540897px; animation: 1.785714s linear -1.146825s infinite forwards bounce-1734463d-8b7d-4920-af78-cf4b2fa25d40;"><path d="M1.83-4.27L1.83-4.27L1.83-4.27Q1.83-6.14 2.69-7.54L2.69-7.54L2.69-7.54Q3.55-8.94 5.48-8.94L5.48-8.94L16.81-8.94L16.81-78.10L6.55-78.10L6.55-78.10Q4.62-78.10 3.76-79.50L3.76-79.50L3.76-79.50Q2.89-80.89 2.89-82.77L2.89-82.77L2.89-82.77Q2.89-84.45 3.88-85.74L3.88-85.74L3.88-85.74Q4.88-87.04 6.65-87.04L6.65-87.04L38.90-87.04L38.90-87.04Q40.68-87.04 41.64-85.74L41.64-85.74L41.64-85.74Q42.61-84.45 42.61-82.77L42.61-82.77L42.61-82.77Q42.61-80.89 41.77-79.50L41.77-79.50L41.77-79.50Q40.93-78.10 39-78.10L39-78.10L28.69-78.10L28.69-48.90L76.02-48.90L76.02-78.10L65.71-78.10L65.71-78.10Q63.78-78.10 62.92-79.50L62.92-79.50L62.92-79.50Q62.05-80.89 62.05-82.77L62.05-82.77L62.05-82.77Q62.05-84.45 63.04-85.74L63.04-85.74L63.04-85.74Q64.04-87.04 65.81-87.04L65.81-87.04L96.99-87.04L96.99-87.04Q98.77-87.04 99.76-85.74L99.76-85.74L99.76-85.74Q100.75-84.45 100.75-82.77L100.75-82.77L100.75-82.77Q100.75-80.89 99.89-79.50L99.89-79.50L99.89-79.50Q99.02-78.10 97.09-78.10L97.09-78.10L87.85-78.10L87.85-8.94L97.09-8.94L97.09-8.94Q99.02-8.94 99.89-7.54L99.89-7.54L99.89-7.54Q100.75-6.14 100.75-4.27L100.75-4.27L100.75-4.27Q100.75-2.59 99.76-1.29L99.76-1.29L99.76-1.29Q98.77 0 96.99 0L96.99 0L65.81 0L65.81 0Q64.04 0 63.04-1.29L63.04-1.29L63.04-1.29Q62.05-2.59 62.05-4.27L62.05-4.27L62.05-4.27Q62.05-6.14 62.92-7.54L62.92-7.54L62.92-7.54Q63.78-8.94 65.71-8.94L65.71-8.94L76.02-8.94L76.02-40.02L28.69-40.02L28.69-8.94L39-8.94L39-8.94Q40.93-8.94 41.77-7.54L41.77-7.54L41.77-7.54Q42.61-6.14 42.61-4.27L42.61-4.27L42.61-4.27Q42.61-2.59 41.64-1.29L41.64-1.29L41.64-1.29Q40.68 0 38.90 0L38.90 0L5.59 0L5.59 0Q3.81 0 2.82-1.29L2.82-1.29L2.82-1.29Q1.83-2.59 1.83-4.27L1.83-4.27" fill="#93dbe9" stroke="none" stroke-width="none" transform="translate(-603.2049865722656,37.979102783203125)" style="fill: rgb(147, 219, 233); animation-play-state: running; animation-delay: 0s;"></path></g><g class="path" style="transform: matrix(1, 0, 0, 1, 0, 0); transform-origin: -479.830021px -42.200897px; animation: 1.785714s linear -1.079365s infinite forwards bounce-1734463d-8b7d-4920-af78-cf4b2fa25d40;"><path d="M123.40-72.46L123.40-72.46L123.40-72.46Q120.20-72.46 117.94-74.72L117.94-74.72L117.94-74.72Q115.68-76.98 115.68-80.18L115.68-80.18L115.68-80.18Q115.68-83.38 117.94-85.64L117.94-85.64L117.94-85.64Q120.20-87.90 123.40-87.90L123.40-87.90L123.40-87.90Q126.60-87.90 128.83-85.64L128.83-85.64L128.83-85.64Q131.07-83.38 131.07-80.18L131.07-80.18L131.07-80.18Q131.07-76.98 128.83-74.72L128.83-74.72L128.83-74.72Q126.60-72.46 123.40-72.46L123.40-72.46" fill="#93dbe9" stroke="none" stroke-width="none" transform="translate(-603.2049865722656,37.979102783203125)" style="fill: rgb(104, 156, 197); animation-play-state: running; animation-delay: 0s;"></path></g><g class="path" style="transform: matrix(1, 0, 0, 1, 0, 0); transform-origin: -479.755013px 7.814102px; animation: 1.785714s linear -1.011905s infinite forwards bounce-1734463d-8b7d-4920-af78-cf4b2fa25d40;"><path d="M107.76-4.21L107.76-4.21L107.76-4.21Q107.76-6.09 108.70-7.44L108.70-7.44L108.70-7.44Q109.64-8.79 111.62-8.79L111.62-8.79L118.57-8.79L118.57-49.92L111.31-47.94L111.31-47.94Q111.21-47.89 111.03-47.86L111.03-47.86L111.03-47.86Q110.86-47.84 110.60-47.84L110.60-47.84L110.60-47.84Q109.08-47.84 107.76-49.08L107.76-49.08L107.76-49.08Q106.44-50.32 106.44-51.90L106.44-51.90L106.44-51.90Q106.44-53.52 107.17-54.67L107.17-54.67L107.17-54.67Q107.91-55.81 109.33-56.16L109.33-56.16L125.58-60.23L125.58-60.23Q125.73-60.28 125.94-60.30L125.94-60.30L125.94-60.30Q126.14-60.33 126.39-60.33L126.39-60.33L126.39-60.33Q127.51-60.33 128.25-59.69L128.25-59.69L128.25-59.69Q128.98-59.06 128.98-57.94L128.98-57.94L128.98-8.79L136.80-8.79L136.80-8.79Q138.73-8.79 139.60-7.39L139.60-7.39L139.60-7.39Q140.46-5.99 140.46-4.11L140.46-4.11L140.46-4.11Q140.46-2.44 139.47-1.22L139.47-1.22L139.47-1.22Q138.48 0 136.70 0L136.70 0L111.92 0L111.92 0Q109.79 0 108.77-1.14L108.77-1.14L108.77-1.14Q107.76-2.29 107.76-4.21L107.76-4.21" fill="#93dbe9" stroke="none" stroke-width="none" transform="translate(-603.2049865722656,37.979102783203125)" style="fill: rgb(94, 111, 163); animation-play-state: running; animation-delay: 0s;"></path></g><g class="path" style="transform: matrix(1, 0, 0, 1, 0, 0); transform-origin: -414.96003px -0.130894px; animation: 1.785714s linear -0.944444s infinite forwards bounce-1734463d-8b7d-4920-af78-cf4b2fa25d40;"><path d="M195.30-6.80L195.30-6.80L195.30-6.80Q200.18-6.80 201.60-9.55L201.60-9.55L201.60-9.55Q203.02-12.29 205.92-12.29L205.92-12.29L205.92-12.29Q207.49-12.29 208.53-11.15L208.53-11.15L208.53-11.15Q209.57-10.00 209.57-8.43L209.57-8.43L209.57-8.43Q209.57-3.91 204.14-1.27L204.14-1.27L204.14-1.27Q198.71 1.37 193.58 1.37L193.58 1.37L193.58 1.37Q187.64 1.37 183.17-2.82L183.17-2.82L183.17-2.82Q178.70-7.01 178.70-12.59L178.70-12.59L178.70-48.55L171.08-48.55L171.08-48.55Q168.95-48.55 167.93-49.77L167.93-49.77L167.93-49.77Q166.92-50.98 166.92-52.91L166.92-52.91L166.92-52.91Q166.92-54.79 167.86-56.16L167.86-56.16L167.86-56.16Q168.80-57.54 170.78-57.54L170.78-57.54L178.70-57.54L178.70-57.54Q178.70-62.16 179.51-69.88L179.51-69.88L179.51-69.88Q180.32-77.59 184.69-77.59L184.69-77.59L184.69-77.59Q185.96-77.59 186.90-77.29L186.90-77.29L186.90-77.29Q187.84-76.98 188.75-76.32L188.75-76.32L188.75-75.31L188.75-75.31Q188.75-74.65 188.80-73.81L188.80-73.81L188.80-73.81Q188.86-72.97 188.86-72.31L188.86-72.31L188.86-57.54L202.16-57.54L202.16-57.54Q204.09-57.54 204.95-56.11L204.95-56.11L204.95-56.11Q205.82-54.69 205.82-52.81L205.82-52.81L205.82-52.81Q205.82-51.14 204.83-49.84L204.83-49.84L204.83-49.84Q203.84-48.55 202.06-48.55L202.06-48.55L188.86-48.55L188.86-14.17L188.86-14.17Q188.86-10.21 190.68-8.51L190.68-8.51L190.68-8.51Q192.51-6.80 195.30-6.80L195.30-6.80" fill="#93dbe9" stroke="none" stroke-width="none" transform="translate(-603.2049865722656,37.979102783203125)" style="fill: rgb(59, 67, 104); animation-play-state: running; animation-delay: 0s;"></path></g><g class="path" style="transform: matrix(1, 0, 0, 1, 0, 0); transform-origin: -354.175018px -6.175896px; animation: 1.785714s linear -0.876984s infinite forwards bounce-1734463d-8b7d-4920-af78-cf4b2fa25d40;"><path d="M254.16-51.70L254.16-51.70L254.16-51.70Q248.37-51.70 243.88-48.22L243.88-48.22L243.88-48.22Q239.38-44.74 236.79-40.57L236.79-40.57L236.79-8.94L245.12-8.94L245.12-8.94Q247.10-8.94 247.66-7.59L247.66-7.59L247.66-7.59Q248.22-6.25 248.22-4.37L248.22-4.37L248.22-4.37Q248.22-2.84 247.41-1.42L247.41-1.42L247.41-1.42Q246.59 0 245.02 0L245.02 0L220.19 0L220.19 0Q218.00 0 217.17-1.14L217.17-1.14L217.17-1.14Q216.33-2.29 216.33-4.27L216.33-4.27L216.33-4.27Q216.33-6.14 217.09-7.54L217.09-7.54L217.09-7.54Q217.85-8.94 219.83-8.94L219.83-8.94L226.38-8.94L226.38-77.39L214.45-74.24L214.45-74.24Q214.25-74.24 214.20-74.19L214.20-74.19L214.20-74.19Q214.14-74.14 213.94-74.14L213.94-74.14L213.94-74.14Q212.37-74.14 211.12-75.54L211.12-75.54L211.12-75.54Q209.88-76.93 209.88-78.51L209.88-78.51L209.88-78.51Q209.88-80.69 211.02-81.38L211.02-81.38L211.02-81.38Q212.16-82.06 213.84-82.57L213.84-82.57L233.39-88.21L233.39-88.21Q233.49-88.26 233.67-88.28L233.67-88.28L233.67-88.28Q233.85-88.31 234.10-88.31L234.10-88.31L234.10-88.31Q235.17-88.31 235.98-87.62L235.98-87.62L235.98-87.62Q236.79-86.94 236.79-85.82L236.79-85.82L236.79-50.98L236.79-50.98Q239.74-54.49 244.77-57.41L244.77-57.41L244.77-57.41Q249.79-60.33 256.04-60.33L256.04-60.33L256.04-60.33Q265.54-60.33 271.15-54.74L271.15-54.74L271.15-54.74Q276.76-49.16 276.76-39.61L276.76-39.61L276.76-8.94L285.04-8.94L285.04-8.94Q287.02-8.94 287.60-7.59L287.60-7.59L287.60-7.59Q288.18-6.25 288.18-4.37L288.18-4.37L288.18-4.37Q288.18-2.84 287.35-1.42L287.35-1.42L287.35-1.42Q286.51 0 284.93 0L284.93 0L260.10 0L260.10 0Q257.92 0 257.08-1.14L257.08-1.14L257.08-1.14Q256.24-2.29 256.24-4.27L256.24-4.27L256.24-4.27Q256.24-6.14 257.03-7.54L257.03-7.54L257.03-7.54Q257.82-8.94 259.80-8.94L259.80-8.94L266.45-8.94L266.45-38.70L266.45-38.70Q266.45-44.74 263.38-48.22L263.38-48.22L263.38-48.22Q260.30-51.70 254.16-51.70L254.16-51.70" fill="#93dbe9" stroke="none" stroke-width="none" transform="translate(-603.2049865722656,37.979102783203125)" style="fill: rgb(25, 29, 58); animation-play-state: running; animation-delay: 0s;"></path></g><g class="path" style="transform: matrix(1, 0, 0, 1, 0, 0); transform-origin: -280.925018px 8.449102px; animation: 1.785714s linear -0.809524s infinite forwards bounce-1734463d-8b7d-4920-af78-cf4b2fa25d40;"><path d="M342.72-29.45L304.23-28.39L304.23-28.39Q304.23-18.43 310.45-13.23L310.45-13.23L310.45-13.23Q316.67-8.02 325.76-8.02L325.76-8.02L325.76-8.02Q332.21-8.02 335.89-10.44L335.89-10.44L335.89-10.44Q339.57-12.85 342.93-15.95L342.93-15.95L342.93-15.95Q343.69-16.61 344.55-16.94L344.55-16.94L344.55-16.94Q345.41-17.27 346.28-17.27L346.28-17.27L346.28-17.27Q348.31-17.27 349.73-16.02L349.73-16.02L349.73-16.02Q351.15-14.78 351.15-12.70L351.15-12.70L351.15-12.70Q351.15-6.20 341.73-2.46L341.73-2.46L341.73-2.46Q332.31 1.27 325.36 1.27L325.36 1.27L325.36 1.27Q311.44 1.27 302.43-6.98L302.43-6.98L302.43-6.98Q293.41-15.23 293.41-29.20L293.41-29.20L293.41-29.20Q293.41-43.01 301.69-51.67L301.69-51.67L301.69-51.67Q309.97-60.33 324.14-60.33L324.14-60.33L324.14-60.33Q334.29-60.33 342.67-53.29L342.67-53.29L342.67-53.29Q351.05-46.26 351.05-35.14L351.05-35.14L351.05-35.14Q351.05-31.33 348.69-30.57L348.69-30.57L348.69-30.57Q346.33-29.81 342.72-29.45L342.72-29.45zM338.30-38.39L338.30-38.39L338.30-38.39Q338.30-45.65 333.86-48.67L333.86-48.67L333.86-48.67Q329.42-51.70 324.14-51.70L324.14-51.70L324.14-51.70Q315.20-51.70 309.94-47.28L309.94-47.28L309.94-47.28Q304.69-42.86 304.03-35.55L304.03-35.55L334.55-36.21L334.55-36.21Q335.97-36.26 337.14-36.74L337.14-36.74L337.14-36.74Q338.30-37.22 338.30-38.39L338.30-38.39" fill="#93dbe9" stroke="none" stroke-width="none" transform="translate(-603.2049865722656,37.979102783203125)" style="fill: rgb(217, 219, 238); animation-play-state: running; animation-delay: 0s;"></path></g><g class="path" style="transform: matrix(1, 0, 0, 1, 0, 0); transform-origin: -218.940018px 7.814102px; animation: 1.785714s linear -0.742063s infinite forwards bounce-1734463d-8b7d-4920-af78-cf4b2fa25d40;"><path d="M400.97-45.45L400.97-51.09L400.97-51.09Q394.88-51.09 390.10-48.39L390.10-48.39L390.10-48.39Q385.33-45.70 382.84-42.00L382.84-42.00L382.84-8.94L396.45-8.94L396.45-8.94Q398.38-8.94 399.24-7.54L399.24-7.54L399.24-7.54Q400.11-6.14 400.11-4.27L400.11-4.27L400.11-4.27Q400.11-2.59 399.12-1.29L399.12-1.29L399.12-1.29Q398.13 0 396.35 0L396.35 0L362.78 0L362.78 0Q360.65 0 359.63-1.22L359.63-1.22L359.63-1.22Q358.62-2.44 358.62-4.37L358.62-4.37L358.62-4.37Q358.62-6.25 359.56-7.59L359.56-7.59L359.56-7.59Q360.50-8.94 362.48-8.94L362.48-8.94L372.43-8.94L372.43-49.71L365.17-47.94L365.17-47.94Q365.07-47.89 364.89-47.86L364.89-47.86L364.89-47.86Q364.71-47.84 364.46-47.84L364.46-47.84L364.46-47.84Q362.93-47.84 361.61-49.08L361.61-49.08L361.61-49.08Q360.29-50.32 360.29-51.90L360.29-51.90L360.29-51.90Q360.29-53.63 361.03-54.67L361.03-54.67L361.03-54.67Q361.77-55.71 363.19-56.16L363.19-56.16L377.36-60.23L377.36-60.23Q377.56-60.23 377.61-60.28L377.61-60.28L377.61-60.28Q377.66-60.33 377.86-60.33L377.86-60.33L378.17-60.33L378.17-60.33Q379.23-60.33 380.00-59.69L380.00-59.69L380.00-59.69Q380.76-59.06 380.76-57.94L380.76-57.94L381.82-48.34L381.82-48.34Q385.33-53.68 391.04-57.00L391.04-57.00L391.04-57.00Q396.75-60.33 405.64-60.33L405.64-60.33L405.64-60.33Q407.32-60.33 408.61-59.34L408.61-59.34L408.61-59.34Q409.91-58.35 409.91-56.57L409.91-56.57L409.91-45.75L409.91-45.75Q409.91-43.62 408.69-42.61L408.69-42.61L408.69-42.61Q407.47-41.59 405.54-41.59L405.54-41.59L405.54-41.59Q403.66-41.59 402.31-42.53L402.31-42.53L402.31-42.53Q400.97-43.47 400.97-45.45L400.97-45.45" fill="#93dbe9" stroke="none" stroke-width="none" transform="translate(-603.2049865722656,37.979102783203125)" style="fill: rgb(179, 183, 226); animation-play-state: running; animation-delay: 0s;"></path></g><g class="path" style="transform: matrix(1, 0, 0, 1, 0, 0); transform-origin: -159.705017px 8.449102px; animation: 1.785714s linear -0.674603s infinite forwards bounce-1734463d-8b7d-4920-af78-cf4b2fa25d40;"><path d="M463.94-29.45L425.45-28.39L425.45-28.39Q425.45-18.43 431.67-13.23L431.67-13.23L431.67-13.23Q437.89-8.02 446.98-8.02L446.98-8.02L446.98-8.02Q453.43-8.02 457.11-10.44L457.11-10.44L457.11-10.44Q460.79-12.85 464.14-15.95L464.14-15.95L464.14-15.95Q464.90-16.61 465.77-16.94L465.77-16.94L465.77-16.94Q466.63-17.27 467.49-17.27L467.49-17.27L467.49-17.27Q469.52-17.27 470.95-16.02L470.95-16.02L470.95-16.02Q472.37-14.78 472.37-12.70L472.37-12.70L472.37-12.70Q472.37-6.20 462.95-2.46L462.95-2.46L462.95-2.46Q453.53 1.27 446.57 1.27L446.57 1.27L446.57 1.27Q432.66 1.27 423.64-6.98L423.64-6.98L423.64-6.98Q414.63-15.23 414.63-29.20L414.63-29.20L414.63-29.20Q414.63-43.01 422.91-51.67L422.91-51.67L422.91-51.67Q431.18-60.33 445.35-60.33L445.35-60.33L445.35-60.33Q455.51-60.33 463.89-53.29L463.89-53.29L463.89-53.29Q472.27-46.26 472.27-35.14L472.27-35.14L472.27-35.14Q472.27-31.33 469.90-30.57L469.90-30.57L469.90-30.57Q467.54-29.81 463.94-29.45L463.94-29.45zM459.52-38.39L459.52-38.39L459.52-38.39Q459.52-45.65 455.08-48.67L455.08-48.67L455.08-48.67Q450.63-51.70 445.35-51.70L445.35-51.70L445.35-51.70Q436.41-51.70 431.16-47.28L431.16-47.28L431.16-47.28Q425.90-42.86 425.24-35.55L425.24-35.55L455.76-36.21L455.76-36.21Q457.18-36.26 458.35-36.74L458.35-36.74L458.35-36.74Q459.52-37.22 459.52-38.39L459.52-38.39" fill="#93dbe9" stroke="none" stroke-width="none" transform="translate(-603.2049865722656,37.979102783203125)" style="fill: rgb(147, 219, 233); animation-play-state: running; animation-delay: 0s;"></path></g><g class="path" style="transform: matrix(1, 0, 0, 1, 0, 0); transform-origin: -107.63002px 40.414103px; animation: 1.785714s linear -0.607143s infinite forwards bounce-1734463d-8b7d-4920-af78-cf4b2fa25d40;"><path d="M495.22-14.22L495.22-14.22L495.22-14.22Q499.38-14.22 502.51-11.38L502.51-11.38L502.51-11.38Q505.63-8.53 505.63-2.95L505.63-2.95L505.63-2.95Q505.63 5.03 501.54 10.28L501.54 10.28L501.54 10.28Q497.45 15.54 491.71 18.43L491.71 18.43L491.71 18.43Q491.11 18.79 490.47 18.94L490.47 18.94L490.47 18.94Q489.84 19.09 489.33 19.09L489.33 19.09L489.33 19.09Q487.70 19.09 486.61 18.03L486.61 18.03L486.61 18.03Q485.52 16.96 485.52 15.64L485.52 15.64L485.52 15.64Q485.52 14.98 485.90 14.27L485.90 14.27L485.90 14.27Q486.28 13.56 487.09 13L487.09 13L487.09 13Q489.99 11.07 493.06 8.33L493.06 8.33L493.06 8.33Q496.13 5.59 496.13 1.27L496.13 1.27L496.13 1.27Q492.02 1.27 489.30-0.61L489.30-0.61L489.30-0.61Q486.59-2.49 486.59-6.35L486.59-6.35L486.59-6.35Q486.59-10.26 489.23-12.24L489.23-12.24L489.23-12.24Q491.87-14.22 495.22-14.22L495.22-14.22" fill="#93dbe9" stroke="none" stroke-width="none" transform="translate(-603.2049865722656,37.979102783203125)" style="fill: rgb(104, 156, 197); animation-play-state: running; animation-delay: 0s;"></path></g><g class="path" style="transform: matrix(1, 0, 0, 1, 0, 0); transform-origin: -40.295044px -5.540897px; animation: 1.785714s linear -0.539683s infinite forwards bounce-1734463d-8b7d-4920-af78-cf4b2fa25d40;"><path d="M540.97-4.27L540.97-4.27L540.97-4.27Q540.97-6.14 541.81-7.54L541.81-7.54L541.81-7.54Q542.65-8.94 544.58-8.94L544.58-8.94L556.97-8.94L556.97-78.10L544.58-78.10L544.58-78.10Q542.65-78.10 541.81-79.50L541.81-79.50L541.81-79.50Q540.97-80.89 540.97-82.77L540.97-82.77L540.97-82.77Q540.97-84.45 541.94-85.74L541.94-85.74L541.94-85.74Q542.90-87.04 544.68-87.04L544.68-87.04L581.09-87.04L581.09-87.04Q582.87-87.04 583.86-85.74L583.86-85.74L583.86-85.74Q584.85-84.45 584.85-82.77L584.85-82.77L584.85-82.77Q584.85-80.89 583.98-79.50L583.98-79.50L583.98-79.50Q583.12-78.10 581.19-78.10L581.19-78.10L568.85-78.10L568.85-8.94L581.19-8.94L581.19-8.94Q583.12-8.94 583.98-7.54L583.98-7.54L583.98-7.54Q584.85-6.14 584.85-4.27L584.85-4.27L584.85-4.27Q584.85-2.59 583.86-1.29L583.86-1.29L583.86-1.29Q582.87 0 581.09 0L581.09 0L544.68 0L544.68 0Q542.90 0 541.94-1.29L541.94-1.29L541.94-1.29Q540.97-2.59 540.97-4.27L540.97-4.27" fill="#93dbe9" stroke="none" stroke-width="none" transform="translate(-603.2049865722656,37.979102783203125)" style="fill: rgb(94, 111, 163); animation-play-state: running; animation-delay: 0s;"></path></g><g class="path" style="transform: matrix(1, 0, 0, 1, 0, 0); transform-origin: 0.279999px -47.7659px; animation: 1.785714s linear -0.472222s infinite forwards bounce-1734463d-8b7d-4920-af78-cf4b2fa25d40;"><path d="M609.48-97.60L606.84-69.93L606.84-69.93Q606.68-68.45 605.62-67.72L605.62-67.72L605.62-67.72Q604.55-66.98 603.59-66.98L603.59-66.98L603.59-66.98Q602.62-66.98 601.50-67.72L601.50-67.72L601.50-67.72Q600.39-68.45 600.23-69.93L600.23-69.93L597.49-97.70L597.49-97.70Q597.44-97.91 597.44-98.13L597.44-98.13L597.44-98.13Q597.44-98.36 597.44-98.57L597.44-98.57L597.44-98.57Q597.44-101.56 599.29-103.04L599.29-103.04L599.29-103.04Q601.15-104.51 603.33-104.51L603.33-104.51L603.33-104.51Q605.67-104.51 607.60-102.96L607.60-102.96L607.60-102.96Q609.53-101.41 609.53-98.41L609.53-98.41L609.53-98.41Q609.53-98.21 609.53-98.01L609.53-98.01L609.53-98.01Q609.53-97.80 609.48-97.60L609.48-97.60" fill="#93dbe9" stroke="none" stroke-width="none" transform="translate(-603.2049865722656,37.979102783203125)" style="fill: rgb(59, 67, 104); animation-play-state: running; animation-delay: 0s;"></path></g><g class="path" style="transform: matrix(1, 0, 0, 1, 0, 0); transform-origin: 82.065002px 7.814102px; animation: 1.785714s linear -0.404762s infinite forwards bounce-1734463d-8b7d-4920-af78-cf4b2fa25d40;"><path d="M714.70-60.33L714.70-60.33L714.70-60.33Q724.04-60.33 730.23-54.69L730.23-54.69L730.23-54.69Q736.43-49.05 736.43-39.61L736.43-39.61L736.43-8.94L743.84-8.94L743.84-8.94Q745.77-8.94 746.61-7.54L746.61-7.54L746.61-7.54Q747.45-6.14 747.45-4.27L747.45-4.27L747.45-4.27Q747.45-2.59 746.48-1.29L746.48-1.29L746.48-1.29Q745.52 0 743.74 0L743.74 0L718.96 0L718.96 0Q716.83 0 715.81-1.22L715.81-1.22L715.81-1.22Q714.80-2.44 714.80-4.37L714.80-4.37L714.80-4.37Q714.80-6.25 715.74-7.59L715.74-7.59L715.74-7.59Q716.68-8.94 718.66-8.94L718.66-8.94L726.17-8.94L726.17-38.70L726.17-38.70Q726.17-44.74 723.10-48.22L723.10-48.22L723.10-48.22Q720.03-51.70 713.88-51.70L713.88-51.70L713.88-51.70Q705.71-51.70 700.12-47.33L700.12-47.33L700.12-47.33Q694.54-42.96 691.44-37.22L691.44-37.22L691.44-8.94L699.82-8.94L699.82-8.94Q701.75-8.94 702.61-7.54L702.61-7.54L702.61-7.54Q703.47-6.14 703.47-4.27L703.47-4.27L703.47-4.27Q703.47-2.59 702.48-1.29L702.48-1.29L702.48-1.29Q701.49 0 699.71 0L699.71 0L672.90 0L672.90 0Q670.77 0 669.75-1.22L669.75-1.22L669.75-1.22Q668.74-2.44 668.74-4.37L668.74-4.37L668.74-4.37Q668.74-6.25 669.68-7.59L669.68-7.59L669.68-7.59Q670.62-8.94 672.60-8.94L672.60-8.94L681.13-8.94L681.13-38.70L681.13-38.70Q681.13-44.74 678.06-48.22L678.06-48.22L678.06-48.22Q674.98-51.70 668.84-51.70L668.84-51.70L668.84-51.70Q660.26-51.70 654.39-47.63L654.39-47.63L654.39-47.63Q648.53-43.57 645.63-37.73L645.63-37.73L645.63-8.94L655.03-8.94L655.03-8.94Q656.96-8.94 657.79-7.54L657.79-7.54L657.79-7.54Q658.63-6.14 658.63-4.27L658.63-4.27L658.63-4.27Q658.63-2.59 657.67-1.29L657.67-1.29L657.67-1.29Q656.70 0 654.93 0L654.93 0L628.06 0L628.06 0Q625.93 0 624.91-1.22L624.91-1.22L624.91-1.22Q623.90-2.44 623.90-4.37L623.90-4.37L623.90-4.37Q623.90-6.25 624.84-7.59L624.84-7.59L624.84-7.59Q625.78-8.94 627.76-8.94L627.76-8.94L635.27-8.94L635.27-49.71L627.96-47.94L627.96-47.94Q627.86-47.89 627.68-47.86L627.68-47.86L627.68-47.86Q627.50-47.84 627.25-47.84L627.25-47.84L627.25-47.84Q625.73-47.84 624.41-49.08L624.41-49.08L624.41-49.08Q623.09-50.32 623.09-51.90L623.09-51.90L623.09-51.90Q623.09-53.63 623.82-54.67L623.82-54.67L623.82-54.67Q624.56-55.71 625.98-56.16L625.98-56.16L640.15-60.23L640.15-60.23Q640.35-60.23 640.40-60.28L640.40-60.28L640.40-60.28Q640.45-60.33 640.66-60.33L640.66-60.33L640.96-60.33L640.96-60.33Q642.03-60.33 642.79-59.69L642.79-59.69L642.79-59.69Q643.55-59.06 643.55-57.94L643.55-57.94L644.62-48.34L644.62-48.34Q647.66-53.47 654.60-56.90L654.60-56.90L654.60-56.90Q661.53-60.33 669.70-60.33L669.70-60.33L669.70-60.33Q677.37-60.33 682.65-56.72L682.65-56.72L682.65-56.72Q687.93-53.12 690.07-47.43L690.07-47.43L690.07-47.43Q693.57-52.51 699.87-56.42L699.87-56.42L699.87-56.42Q706.16-60.33 714.70-60.33L714.70-60.33" fill="#93dbe9" stroke="none" stroke-width="none" transform="translate(-603.2049865722656,37.979102783203125)" style="fill: rgb(25, 29, 58); animation-play-state: running; animation-delay: 0s;"></path></g><g class="path" style="transform: matrix(1, 0, 0, 1, 0, 0); transform-origin: 216.074982px -5.515896px; animation: 1.785714s linear -0.337302s infinite forwards bounce-1734463d-8b7d-4920-af78-cf4b2fa25d40;"><path d="M801.48-47.84L810.82-47.84L810.82-47.84Q822.40-47.84 831.24-49.84L831.24-49.84L831.24-49.84Q840.07-51.85 840.07-62.92L840.07-62.92L840.07-62.92Q840.07-74.19 830.15-76.15L830.15-76.15L830.15-76.15Q820.22-78.10 808.95-78.10L808.95-78.10L801.48-78.10L801.48-47.84zM852.41-63.43L852.41-63.43L852.41-63.43Q852.41-53.07 845.66-48.39L845.66-48.39L845.66-48.39Q838.91-43.72 829.05-42.00L829.05-42.00L829.05-42.00Q833.88-39.86 837.48-36.41L837.48-36.41L837.48-36.41Q841.09-32.96 843.38-27.42L843.38-27.42L850.99-8.99L858.46-8.99L858.46-8.99Q861.50-8.99 862.72-7.92L862.72-7.92L862.72-7.92Q863.94-6.86 863.94-4.27L863.94-4.27L863.94-4.27Q863.94-1.42 862.42-0.69L862.42-0.69L862.42-0.69Q860.89 0.05 858.51 0.05L858.51 0.05L836.47 0L836.47 0Q834.69 0 833.70-1.29L833.70-1.29L833.70-1.29Q832.71-2.59 832.71-4.27L832.71-4.27L832.71-4.27Q832.71-6.14 833.57-7.57L833.57-7.57L833.57-7.57Q834.44-8.99 836.37-8.99L836.37-8.99L838.86-8.99L833.17-23.36L833.17-23.36Q830.88-29.10 825.73-33.95L825.73-33.95L825.73-33.95Q820.57-38.80 813.01-38.80L813.01-38.80L801.48-38.80L801.48-8.99L814.89-8.99L814.89-8.99Q816.82-8.99 817.68-7.57L817.68-7.57L817.68-7.57Q818.54-6.14 818.54-4.27L818.54-4.27L818.54-4.27Q818.54-2.59 817.55-1.29L817.55-1.29L817.55-1.29Q816.56 0 814.79 0L814.79 0L778.38 0L778.38 0Q776.60 0 775.61-1.29L775.61-1.29L775.61-1.29Q774.62-2.59 774.62-4.27L774.62-4.27L774.62-4.27Q774.62-6.14 775.48-7.57L775.48-7.57L775.48-7.57Q776.34-8.99 778.27-8.99L778.27-8.99L789.60-8.99L789.60-78.10L780.36-78.10L780.36-78.10Q778.43-78.10 777.56-79.50L777.56-79.50L777.56-79.50Q776.70-80.89 776.70-82.77L776.70-82.77L776.70-82.77Q776.70-84.45 777.69-85.74L777.69-85.74L777.69-85.74Q778.68-87.04 780.46-87.04L780.46-87.04L810.52-87.04L810.52-87.04Q827.02-87.04 839.72-83.36L839.72-83.36L839.72-83.36Q852.41-79.68 852.41-63.43L852.41-63.43" fill="#93dbe9" stroke="none" stroke-width="none" transform="translate(-603.2049865722656,37.979102783203125)" style="fill: rgb(217, 219, 238); animation-play-state: running; animation-delay: 0s;"></path></g><g class="path" style="transform: matrix(1, 0, 0, 1, 0, 0); transform-origin: 298.089996px 8.524101px; animation: 1.785714s linear -0.269841s infinite forwards bounce-1734463d-8b7d-4920-af78-cf4b2fa25d40;"><path d="M933.82-8.53L933.82-8.53L933.82-8.53Q933.82-4.47 928.43-1.60L928.43-1.60L928.43-1.60Q923.05 1.27 919.60 1.27L919.60 1.27L919.60 1.27Q915.43 1.27 912.89-0.76L912.89-0.76L912.89-0.76Q910.36-2.79 909.44-6.96L909.44-6.96L909.44-6.96Q905.73-2.69 899.74-0.63L899.74-0.63L899.74-0.63Q893.75 1.42 886.95 1.42L886.95 1.42L886.95 1.42Q879.18 1.42 873.97-3.30L873.97-3.30L873.97-3.30Q868.77-8.02 868.77-15.59L868.77-15.59L868.77-15.59Q868.77-29.20 882.07-32.25L882.07-32.25L882.07-32.25Q895.38-35.29 908.07-36.41L908.07-36.41L908.07-44.64L908.07-44.64Q908.07-48.60 904.67-50.15L904.67-50.15L904.67-50.15Q901.27-51.70 897.36-51.70L897.36-51.70L897.36-51.70Q890.25-51.70 886.56-50.17L886.56-50.17L886.56-50.17Q882.88-48.65 878.01-45.55L878.01-45.55L878.01-45.55Q877.55-45.30 877.12-45.14L877.12-45.14L877.12-45.14Q876.69-44.99 876.23-44.99L876.23-44.99L876.23-44.99Q874.50-44.99 873.13-46.62L873.13-46.62L873.13-46.62Q871.76-48.24 871.76-50.02L871.76-50.02L871.76-50.02Q871.76-56.11 880.67-58.22L880.67-58.22L880.67-58.22Q889.59-60.33 895.88-60.33L895.88-60.33L895.88-60.33Q908.73-60.33 913.45-54.87L913.45-54.87L913.45-54.87Q918.18-49.41 918.18-36.71L918.18-36.71L918.18-11.12L918.18-11.12Q918.18-9.55 918.71-8.51L918.71-8.51L918.71-8.51Q919.24-7.46 920.41-7.46L920.41-7.46L920.41-7.46Q922.70-7.46 925.54-10.21L925.54-10.21L925.54-10.21Q928.38-12.95 930.21-12.95L930.21-12.95L930.21-12.95Q931.33-12.95 932.57-11.45L932.57-11.45L932.57-11.45Q933.82-9.95 933.82-8.53L933.82-8.53zM908.07-14.02L908.07-28.79L908.07-28.79Q900.05-27.93 889.87-26.18L889.87-26.18L889.87-26.18Q879.68-24.43 879.68-15.89L879.68-15.89L879.68-15.89Q879.68-11.58 882.88-9.47L882.88-9.47L882.88-9.47Q886.08-7.36 890.50-7.36L890.50-7.36L890.50-7.36Q895.78-7.36 900.17-9.32L900.17-9.32L900.17-9.32Q904.57-11.27 908.07-14.02L908.07-14.02" fill="#93dbe9" stroke="none" stroke-width="none" transform="translate(-603.2049865722656,37.979102783203125)" style="fill: rgb(179, 183, 226); animation-play-state: running; animation-delay: 0s;"></path></g><g class="path" style="transform: matrix(1, 0, 0, 1, 0, 0); transform-origin: 358.77002px 24.189102px; animation: 1.785714s linear -0.202381s infinite forwards bounce-1734463d-8b7d-4920-af78-cf4b2fa25d40;"><path d="M957.18-53.27L957.18-53.27L957.18-53.27Q957.18-51.39 956.31-49.97L956.31-49.97L956.31-49.97Q955.45-48.55 953.52-48.55L953.52-48.55L947.43-48.55L965.10-10.61L979.11-48.55L973.22-48.55L973.22-48.55Q971.29-48.55 970.43-49.97L970.43-49.97L970.43-49.97Q969.57-51.39 969.57-53.27L969.57-53.27L969.57-53.27Q969.57-54.95 970.56-56.24L970.56-56.24L970.56-56.24Q971.55-57.54 973.32-57.54L973.32-57.54L993.79-57.54L993.79-57.54Q995.97-57.54 996.96-56.32L996.96-56.32L996.96-56.32Q997.95-55.10 997.95-53.17L997.95-53.17L997.95-53.17Q997.95-51.29 997.01-49.92L997.01-49.92L997.01-49.92Q996.07-48.55 994.09-48.55L994.09-48.55L988.15-48.55L967.08 6.14L967.08 6.14Q964.34 12.59 959.69 21.28L959.69 21.28L959.69 21.28Q955.04 29.96 945.45 29.96L945.45 29.96L945.45 29.96Q942.40 29.96 940.70 28.29L940.70 28.29L940.70 28.29Q939.00 26.61 939.00 24.58L939.00 24.58L939.00 24.58Q939.00 22.70 940.29 20.72L940.29 20.72L940.29 20.72Q941.59 18.74 944.84 18.69L944.84 18.69L944.84 18.69Q949.10 18.69 952.20 15.59L952.20 15.59L952.20 15.59Q955.30 12.49 956.97 8.43L956.97 8.43L960.22 0.30L960.22 0.30Q959.97 0.30 958.93-1.75L958.93-1.75L958.93-1.75Q957.89-3.81 957.68-4.27L957.68-4.27L935.95-48.55L929.80-48.55L929.80-48.55Q927.82-48.55 926.91-49.92L926.91-49.92L926.91-49.92Q926.00-51.29 926.00-53.17L926.00-53.17L926.00-53.17Q926.00-55.10 927.01-56.32L927.01-56.32L927.01-56.32Q928.03-57.54 930.16-57.54L930.16-57.54L953.42-57.54L953.42-57.54Q955.20-57.54 956.19-56.24L956.19-56.24L956.19-56.24Q957.18-54.95 957.18-53.27L957.18-53.27" fill="#93dbe9" stroke="none" stroke-width="none" transform="translate(-603.2049865722656,37.979102783203125)" style="fill: rgb(147, 219, 233); animation-play-state: running; animation-delay: 0s;"></path></g><g class="path" style="transform: matrix(1, 0, 0, 1, 0, 0); transform-origin: 429.149994px 8.524101px; animation: 1.785714s linear -0.134921s infinite forwards bounce-1734463d-8b7d-4920-af78-cf4b2fa25d40;"><path d="M1064.88-8.53L1064.88-8.53L1064.88-8.53Q1064.88-4.47 1059.50-1.60L1059.50-1.60L1059.50-1.60Q1054.12 1.27 1050.66 1.27L1050.66 1.27L1050.66 1.27Q1046.50 1.27 1043.96-0.76L1043.96-0.76L1043.96-0.76Q1041.42-2.79 1040.51-6.96L1040.51-6.96L1040.51-6.96Q1036.80-2.69 1030.81-0.63L1030.81-0.63L1030.81-0.63Q1024.82 1.42 1018.01 1.42L1018.01 1.42L1018.01 1.42Q1010.24 1.42 1005.04-3.30L1005.04-3.30L1005.04-3.30Q999.83-8.02 999.83-15.59L999.83-15.59L999.83-15.59Q999.83-29.20 1013.14-32.25L1013.14-32.25L1013.14-32.25Q1026.44-35.29 1039.14-36.41L1039.14-36.41L1039.14-44.64L1039.14-44.64Q1039.14-48.60 1035.73-50.15L1035.73-50.15L1035.73-50.15Q1032.33-51.70 1028.42-51.70L1028.42-51.70L1028.42-51.70Q1021.31-51.70 1017.63-50.17L1017.63-50.17L1017.63-50.17Q1013.95-48.65 1009.07-45.55L1009.07-45.55L1009.07-45.55Q1008.62-45.30 1008.19-45.14L1008.19-45.14L1008.19-45.14Q1007.75-44.99 1007.30-44.99L1007.30-44.99L1007.30-44.99Q1005.57-44.99 1004.20-46.62L1004.20-46.62L1004.20-46.62Q1002.83-48.24 1002.83-50.02L1002.83-50.02L1002.83-50.02Q1002.83-56.11 1011.74-58.22L1011.74-58.22L1011.74-58.22Q1020.65-60.33 1026.95-60.33L1026.95-60.33L1026.95-60.33Q1039.80-60.33 1044.52-54.87L1044.52-54.87L1044.52-54.87Q1049.24-49.41 1049.24-36.71L1049.24-36.71L1049.24-11.12L1049.24-11.12Q1049.24-9.55 1049.78-8.51L1049.78-8.51L1049.78-8.51Q1050.31-7.46 1051.48-7.46L1051.48-7.46L1051.48-7.46Q1053.76-7.46 1056.61-10.21L1056.61-10.21L1056.61-10.21Q1059.45-12.95 1061.28-12.95L1061.28-12.95L1061.28-12.95Q1062.39-12.95 1063.64-11.45L1063.64-11.45L1063.64-11.45Q1064.88-9.95 1064.88-8.53L1064.88-8.53zM1039.14-14.02L1039.14-28.79L1039.14-28.79Q1031.11-27.93 1020.93-26.18L1020.93-26.18L1020.93-26.18Q1010.75-24.43 1010.75-15.89L1010.75-15.89L1010.75-15.89Q1010.75-11.58 1013.95-9.47L1013.95-9.47L1013.95-9.47Q1017.15-7.36 1021.57-7.36L1021.57-7.36L1021.57-7.36Q1026.85-7.36 1031.24-9.32L1031.24-9.32L1031.24-9.32Q1035.63-11.27 1039.14-14.02L1039.14-14.02" fill="#93dbe9" stroke="none" stroke-width="none" transform="translate(-603.2049865722656,37.979102783203125)" style="fill: rgb(104, 156, 197); animation-play-state: running; animation-delay: 0s;"></path></g><g class="path" style="transform: matrix(1, 0, 0, 1, 0, 0); transform-origin: 496.589966px 8.524101px; animation: 1.785714s linear -0.06746s infinite forwards bounce-1734463d-8b7d-4920-af78-cf4b2fa25d40;"><path d="M1132.32-8.53L1132.32-8.53L1132.32-8.53Q1132.32-4.47 1126.94-1.60L1126.94-1.60L1126.94-1.60Q1121.55 1.27 1118.10 1.27L1118.10 1.27L1118.10 1.27Q1113.94 1.27 1111.40-0.76L1111.40-0.76L1111.40-0.76Q1108.86-2.79 1107.95-6.96L1107.95-6.96L1107.95-6.96Q1104.24-2.69 1098.25-0.63L1098.25-0.63L1098.25-0.63Q1092.25 1.42 1085.45 1.42L1085.45 1.42L1085.45 1.42Q1077.68 1.42 1072.47-3.30L1072.47-3.30L1072.47-3.30Q1067.27-8.02 1067.27-15.59L1067.27-15.59L1067.27-15.59Q1067.27-29.20 1080.57-32.25L1080.57-32.25L1080.57-32.25Q1093.88-35.29 1106.57-36.41L1106.57-36.41L1106.57-44.64L1106.57-44.64Q1106.57-48.60 1103.17-50.15L1103.17-50.15L1103.17-50.15Q1099.77-51.70 1095.86-51.70L1095.86-51.70L1095.86-51.70Q1088.75-51.70 1085.07-50.17L1085.07-50.17L1085.07-50.17Q1081.39-48.65 1076.51-45.55L1076.51-45.55L1076.51-45.55Q1076.05-45.30 1075.62-45.14L1075.62-45.14L1075.62-45.14Q1075.19-44.99 1074.73-44.99L1074.73-44.99L1074.73-44.99Q1073.01-44.99 1071.64-46.62L1071.64-46.62L1071.64-46.62Q1070.27-48.24 1070.27-50.02L1070.27-50.02L1070.27-50.02Q1070.27-56.11 1079.18-58.22L1079.18-58.22L1079.18-58.22Q1088.09-60.33 1094.39-60.33L1094.39-60.33L1094.39-60.33Q1107.23-60.33 1111.96-54.87L1111.96-54.87L1111.96-54.87Q1116.68-49.41 1116.68-36.71L1116.68-36.71L1116.68-11.12L1116.68-11.12Q1116.68-9.55 1117.21-8.51L1117.21-8.51L1117.21-8.51Q1117.75-7.46 1118.91-7.46L1118.91-7.46L1118.91-7.46Q1121.20-7.46 1124.04-10.21L1124.04-10.21L1124.04-10.21Q1126.89-12.95 1128.71-12.95L1128.71-12.95L1128.71-12.95Q1129.83-12.95 1131.08-11.45L1131.08-11.45L1131.08-11.45Q1132.32-9.95 1132.32-8.53L1132.32-8.53zM1106.57-14.02L1106.57-28.79L1106.57-28.79Q1098.55-27.93 1088.37-26.18L1088.37-26.18L1088.37-26.18Q1078.19-24.43 1078.19-15.89L1078.19-15.89L1078.19-15.89Q1078.19-11.58 1081.39-9.47L1081.39-9.47L1081.39-9.47Q1084.59-7.36 1089.00-7.36L1089.00-7.36L1089.00-7.36Q1094.29-7.36 1098.68-9.32L1098.68-9.32L1098.68-9.32Q1103.07-11.27 1106.57-14.02L1106.57-14.02" fill="#93dbe9" stroke="none" stroke-width="none" transform="translate(-603.2049865722656,37.979102783203125)" style="fill: rgb(94, 111, 163); animation-play-state: running; animation-delay: 0s;"></path></g><g class="path" style="transform: matrix(1, 0, 0, 1, 0, 0); transform-origin: 567.964966px 7.814102px; animation: 1.785714s linear infinite forwards bounce-1734463d-8b7d-4920-af78-cf4b2fa25d40;"><path d="M1175.69-51.70L1175.69-51.70L1175.69-51.70Q1168.88-51.70 1162.76-47.20L1162.76-47.20L1162.76-47.20Q1156.64-42.71 1156.64-35.90L1156.64-35.90L1156.64-8.94L1164.06-8.94L1164.06-8.94Q1165.99-8.94 1166.83-7.54L1166.83-7.54L1166.83-7.54Q1167.66-6.14 1167.66-4.27L1167.66-4.27L1167.66-4.27Q1167.66-2.59 1166.70-1.29L1166.70-1.29L1166.70-1.29Q1165.73 0 1163.96 0L1163.96 0L1140.24 0L1140.24 0Q1138.11 0 1137.09-1.22L1137.09-1.22L1137.09-1.22Q1136.08-2.44 1136.08-4.37L1136.08-4.37L1136.08-4.37Q1136.08-6.25 1137.02-7.59L1137.02-7.59L1137.02-7.59Q1137.96-8.94 1139.94-8.94L1139.94-8.94L1146.23-8.94L1146.23-49.71L1138.97-47.94L1138.97-47.94Q1138.87-47.89 1138.69-47.86L1138.69-47.86L1138.69-47.86Q1138.52-47.84 1138.26-47.84L1138.26-47.84L1138.26-47.84Q1136.74-47.84 1135.42-49.08L1135.42-49.08L1135.42-49.08Q1134.10-50.32 1134.10-51.90L1134.10-51.90L1134.10-51.90Q1134.10-53.63 1134.83-54.67L1134.83-54.67L1134.83-54.67Q1135.57-55.71 1136.99-56.16L1136.99-56.16L1151.16-60.23L1151.16-60.23Q1151.36-60.23 1151.41-60.28L1151.41-60.28L1151.41-60.28Q1151.46-60.33 1151.67-60.33L1151.67-60.33L1151.97-60.33L1151.97-60.33Q1153.04-60.33 1153.80-59.69L1153.80-59.69L1153.80-59.69Q1154.56-59.06 1154.56-57.94L1154.56-57.94L1155.63-48.34L1155.63-48.34Q1158.22-53.02 1164.34-56.67L1164.34-56.67L1164.34-56.67Q1170.46-60.33 1177.57-60.33L1177.57-60.33L1177.57-60.33Q1187.06-60.33 1192.65-54.74L1192.65-54.74L1192.65-54.74Q1198.23-49.16 1198.23-39.61L1198.23-39.61L1198.23-8.94L1204.58-8.94L1204.58-8.94Q1206.51-8.94 1207.38-7.54L1207.38-7.54L1207.38-7.54Q1208.24-6.14 1208.24-4.27L1208.24-4.27L1208.24-4.27Q1208.24-2.59 1207.25-1.29L1207.25-1.29L1207.25-1.29Q1206.26 0 1204.48 0L1204.48 0L1179.75 0L1179.75 0Q1177.62 0 1176.60-1.22L1176.60-1.22L1176.60-1.22Q1175.59-2.44 1175.59-4.37L1175.59-4.37L1175.59-4.37Q1175.59-6.25 1176.53-7.59L1176.53-7.59L1176.53-7.59Q1177.46-8.94 1179.45-8.94L1179.45-8.94L1187.98-8.94L1187.98-38.70L1187.98-38.70Q1187.98-44.74 1184.90-48.22L1184.90-48.22L1184.90-48.22Q1181.83-51.70 1175.69-51.70L1175.69-51.70" fill="#93dbe9" stroke="none" stroke-width="none" transform="translate(-603.2049865722656,37.979102783203125)" style="fill: rgb(59, 67, 104); animation-play-state: running; animation-delay: 0s;"></path></g></g>
</g>
</g>
<style id="bounce-1734463d-8b7d-4920-af78-cf4b2fa25d40" data-anikit="">@keyframes bounce-1734463d-8b7d-4920-af78-cf4b2fa25d40
{
  0% {
    animation-timing-function: cubic-bezier(0.1361,0.2514,0.2175,0.8786);
    transform: translate(0,0px) scaleY(1);
  }
  37% {
    animation-timing-function: cubic-bezier(0.7674,0.1844,0.8382,0.7157);
    transform: translate(0,-39.96px) scaleY(1);
  }
  72% {
    animation-timing-function: cubic-bezier(0.1118,0.2149,0.2172,0.941);
    transform: translate(0,0px) scaleY(1);
  }
  87% {
    animation-timing-function: cubic-bezier(0.7494,0.2259,0.8209,0.6963);
    transform: translate(0,19.900000000000002px) scaleY(0.602);
  }
  100% {
    transform: translate(0,0px) scaleY(1);
  }
}</style></svg>